<?xml version="1.0" encoding="utf-8"?>
<!-- Generator: Adobe Illustrator 18.0.0, SVG Export Plug-In . SVG Version: 6.00 Build 0)  -->
<!DOCTYPE svg PUBLIC "-//W3C//DTD SVG 1.1//EN" "http://www.w3.org/Graphics/SVG/1.1/DTD/svg11.dtd">
<svg xmlns="http://www.w3.org/2000/svg" xmlns:xlink="http://www.w3.org/1999/xlink" version="1.1" id="Слой_1" x="0px" y="0px" viewBox="0 0 128 128" enable-background="new 0 0 128 128" xml:space="preserve" width="30px" height="30px">
<g>
	<path fill="#91AFA3" d="M107.5,36.8v73.5c0,5.1-4.1,9.2-9.2,9.2h15.5c5.1,0,9.2-4.1,9.2-9.2V36.8H107.5z"/>
	<path fill="#CBDED6" d="M107.5,36.8v73.5c0,5.1-4.1,9.2-9.2,9.2H20.5c-5.1,0-9.2-4.1-9.2-9.2V36.8"/>
	<rect x="11.3" y="82.8" fill="#91AFA3" width="96.2" height="9.2"/>
	<path fill="#454B54" d="M98.3,122.6H20.5c-6.7,0-12.2-5.5-12.2-12.2V73.6c0-1.7,1.3-3,3-3s3,1.3,3,3v36.8c0,3.4,2.8,6.2,6.2,6.2   h77.8c3.4,0,6.2-2.8,6.2-6.2V82.8c0-1.7,1.3-3,3-3s3,1.3,3,3v27.6C110.5,117.1,105,122.6,98.3,122.6z"/>
	<path fill="#FFFFFF" d="M9,36.8v46h100.8v-46H9z"/>
	<path fill="#454B54" d="M109.8,85.8H9c-1.7,0-3-1.3-3-3v-46c0-1.7,1.3-3,3-3h100.8c1.7,0,3,1.3,3,3v46   C112.8,84.4,111.4,85.8,109.8,85.8z M12,79.8h94.8v-40H12V79.8z"/>
	<circle fill="#FFFFFF" cx="59.9" cy="82.8" r="9.2"/>
	<path fill="#454B54" d="M59.9,85.5c-0.5,0-0.9-0.4-0.9-0.9V80c0-0.5,0.4-0.9,0.9-0.9s0.9,0.4,0.9,0.9v4.6   C60.8,85.1,60.4,85.5,59.9,85.5z"/>
	<path fill="#454B54" d="M59.9,87.5c-1.6,0-2.9-1.3-2.9-2.9V80c0-1.6,1.3-2.9,2.9-2.9c1.6,0,2.9,1.3,2.9,2.9v4.6   C62.8,86.2,61.5,87.5,59.9,87.5z"/>
	<path fill="#454B54" d="M82.4,31c-1.7,0-3-1.3-3-3v-5c0-0.9-0.7-1.6-1.6-1.6H41c-0.9,0-1.6,0.7-1.6,1.6v5c0,1.7-1.3,3-3,3   s-3-1.3-3-3v-5c0-4.2,3.4-7.6,7.6-7.6h36.8c4.2,0,7.6,3.4,7.6,7.6v5C85.4,29.7,84,31,82.4,31z"/>
</g>
</svg>
